<?xml version="1.0" encoding="iso-8859-1"?>
<!-- Generator: Adobe Illustrator 19.1.0, SVG Export Plug-In . SVG Version: 6.00 Build 0)  -->
<svg version="1.1" id="Capa_1" xmlns="http://www.w3.org/2000/svg" xmlns:xlink="http://www.w3.org/1999/xlink" x="0px" y="0px"
	 viewBox="0 0 513.32 513.32" style="enable-background:new 0 0 513.32 513.32;" xml:space="preserve">
<g>
	<g>
		<path d="M406.378,0l-29.944,29.944l55.61,55.61h-89.831c-59.887,0-106.942,47.055-106.942,106.942v106.942
			c-17.11-12.833-40.638-21.388-64.165-21.388H81.275l55.61-55.61l-29.944-29.944L0,299.437l106.942,106.942l29.944-29.944
			l-55.61-55.61h89.831c36.36,0,64.165,27.805,64.165,64.165v128.33h42.777V192.495c0-36.36,27.805-64.165,64.165-64.165h89.831
			l-55.61,55.61l29.944,29.944L513.32,106.942L406.378,0z"/>
	</g>
</g>
<g>
</g>
<g>
</g>
<g>
</g>
<g>
</g>
<g>
</g>
<g>
</g>
<g>
</g>
<g>
</g>
<g>
</g>
<g>
</g>
<g>
</g>
<g>
</g>
<g>
</g>
<g>
</g>
<g>
</g>
</svg>
